HIERARCHY
ROOT Hips
{
	OFFSET 0.000000 0.000000 0.000000
	CHANNELS 6 Xposition Yposition Zposition Xrotation Yrotation Zrotation
	JOINT LeftUpLeg_virtual
	{
		OFFSET 0.000000 0.000000 0.000000
		CHANNELS 3 Xrotation Yrotation Zrotation
		JOINT LeftUpLeg
		{
			OFFSET 15.427100 -6.655098 0.678600
			CHANNELS 3 Xrotation Yrotation Zrotation
			JOINT LeftLeg
			{
				OFFSET 4.081073 -39.591068 13.024000
				CHANNELS 3 Xrotation Yrotation Zrotation
				JOINT LeftFoot
				{
					OFFSET -4.081074 -37.707932 -15.979700
					CHANNELS 3 Xrotation Yrotation Zrotation
					JOINT LeftToeBase
					{
						OFFSET 5.346399 -15.068900 20.645000
						CHANNELS 3 Xrotation Yrotation Zrotation
						JOINT LeftToe_End
						{
							OFFSET 2.754700 0.931300 11.300900
							CHANNELS 3 Xrotation Yrotation Zrotation
							End Site
							{
								OFFSET 0 0 0
							}
						}
					}
				}
			}
		}
	}
	JOINT RightUpLeg_virtual
	{
		OFFSET 0.000000 0.000000 0.000000
		CHANNELS 3 Xrotation Yrotation Zrotation
		JOINT RightUpLeg
		{
			OFFSET -15.569500 -6.655098 0.678600
			CHANNELS 3 Xrotation Yrotation Zrotation
			JOINT RightLeg
			{
				OFFSET -4.081825 -39.591045 13.023800
				CHANNELS 3 Xrotation Yrotation Zrotation
				JOINT RightFoot
				{
					OFFSET 4.081824 -37.707954 -15.979600
					CHANNELS 3 Xrotation Yrotation Zrotation
					JOINT RightToeBase
					{
						OFFSET -5.346400 -15.068900 20.645000
						CHANNELS 3 Xrotation Yrotation Zrotation
						JOINT RightToe_End
						{
							OFFSET -2.754700 0.931300 11.300900
							CHANNELS 3 Xrotation Yrotation Zrotation
							End Site
							{
								OFFSET 0 0 0
							}
						}
					}
				}
			}
		}
	}
	JOINT Spine_virtual
	{
		OFFSET 0.000000 0.000000 0.000000
		CHANNELS 3 Xrotation Yrotation Zrotation
		JOINT Spine
		{
			OFFSET -0.279200 12.230698 -2.892100
			CHANNELS 3 Xrotation Yrotation Zrotation
			JOINT Spine1
			{
				OFFSET -0.232667 10.192268 -1.242267
				CHANNELS 3 Xrotation Yrotation Zrotation
				JOINT Spine1_split
				{
					OFFSET -0.232667 10.192268 -1.242267
					CHANNELS 3 Xrotation Yrotation Zrotation
					JOINT Spine2
					{
						OFFSET -0.232667 10.192268 -1.242267
						CHANNELS 3 Xrotation Yrotation Zrotation
						JOINT Neck_virtual
						{
							OFFSET 0.000000 0.000000 0.000000
							CHANNELS 3 Xrotation Yrotation Zrotation
							JOINT Neck
							{
								OFFSET -0.418800 17.814194 8.416900
								CHANNELS 3 Xrotation Yrotation Zrotation
								JOINT Head
								{
									OFFSET 0.000000 7.031097 3.806800
									CHANNELS 3 Xrotation Yrotation Zrotation
									JOINT HeadTop_End
									{
										OFFSET 0.000000 24.646606 12.978600
										CHANNELS 3 Xrotation Yrotation Zrotation
										End Site
										{
											OFFSET 0 0 0
										}
									}
								}
							}
						}
						JOINT LeftShoulder_virtual
						{
							OFFSET 0.000000 0.000000 0.000000
							CHANNELS 3 Xrotation Yrotation Zrotation
							JOINT LeftShoulder
							{
								OFFSET 8.476499 7.247704 -3.868750
								CHANNELS 3 Xrotation Yrotation Zrotation
								JOINT LeftShoulder_split
								{
									OFFSET 8.476499 7.247704 -3.868750
									CHANNELS 3 Xrotation Yrotation Zrotation
									JOINT LeftArm
									{
										OFFSET 9.308998 -2.777710 0.208600
										CHANNELS 3 Xrotation Yrotation Zrotation
										JOINT LeftForeArm
										{
											OFFSET 29.972298 0.000000 0.000000
											CHANNELS 3 Xrotation Yrotation Zrotation
											JOINT LeftHand
											{
												OFFSET 26.026505 0.000000 0.000000
												CHANNELS 3 Xrotation Yrotation Zrotation
												End Site
												{
													OFFSET 0 0 0
												}
											}
										}
									}
								}
							}
						}
						JOINT RightShoulder_virtual
						{
							OFFSET 0.000000 0.000000 0.000000
							CHANNELS 3 Xrotation Yrotation Zrotation
							JOINT RightShoulder
							{
								OFFSET -7.570500 7.247704 -3.868750
								CHANNELS 3 Xrotation Yrotation Zrotation
								JOINT RightShoulder_split
								{
									OFFSET -7.570500 7.247704 -3.868750
									CHANNELS 3 Xrotation Yrotation Zrotation
									JOINT RightArm
									{
										OFFSET -9.308998 -2.777710 0.208500
										CHANNELS 3 Xrotation Yrotation Zrotation
										JOINT RightForeArm
										{
											OFFSET -29.972300 0.000000 0.000000
											CHANNELS 3 Xrotation Yrotation Zrotation
											JOINT RightHand
											{
												OFFSET -26.026505 0.000000 0.000000
												CHANNELS 3 Xrotation Yrotation Zrotation
												End Site
												{
													OFFSET 0 0 0
												}
											}
										}
									}
								}
							}
						}
					}
				}
			}
		}
	}
}
MOTION
Frames: 12
Frame Time: 0.03333333
-0.418962 90.447929 0.163416 0.000000 0.000000 0.000000 -6.781834 5.291103 -0.855029 -21.636801 10.860238 15.674027 31.342034 1.325878 4.712987 -2.009502 -12.890009 -8.435851 -3.392678 0.169662 -0.024677 0.000000 0.000000 0.000000 -6.990495 7.289939 -0.846381 5.887900 -10.762461 3.345764 17.966683 -8.413945 -7.657436 -12.949156 -17.408156 6.185205 -5.422217 -0.027992 0.111285 0.000000 0.000000 0.000000 -7.083681 5.240081 -1.137577 4.073333 0.331034 3.148572 1.361978 0.328564 2.987618 0.738161 -0.572050 -0.181755 0.000000 0.000000 0.000000 1.049917 0.681677 2.922443 11.379451 -2.048825 -1.123250 3.609120 -10.069947 -7.254142 0.000000 0.000000 0.000000 0.747361 0.685333 2.749244 1.704784 -15.788319 -12.291827 -0.506746 0.187342 -2.395987 6.020898 -3.467357 -69.340217 -1.614438 0.442164 0.199710 0.000000 0.000000 0.000000 0.906615 0.578848 2.996535 2.584108 8.950644 18.495840 -0.236011 2.812372 -1.062163 26.034791 7.876200 59.416089 1.012689 7.184415 0.736899 0.000000 0.000000 0.000000 
-0.314984 90.628654 0.221706 0.000000 0.000000 0.000000 -6.399726 4.727995 -0.870972 -21.495184 11.138471 15.534461 30.812561 1.042099 4.607973 -2.019870 -11.842060 -8.377263 -3.312147 0.162239 -0.041466 0.000000 0.000000 0.000000 -6.616420 6.653396 -0.884571 5.220453 -10.758664 3.029181 17.797496 -8.430241 -7.574284 -12.500271 -16.673581 6.165473 -5.459029 0.010301 0.114050 0.000000 0.000000 0.000000 -6.639197 4.724768 -1.151696 3.978694 0.187742 3.138228 1.408351 0.196962 2.975697 0.759258 -0.553507 -0.190546 0.000000 0.000000 0.000000 1.127085 0.529456 2.909349 11.078580 -1.769798 -1.046792 2.738237 -8.814548 -6.704953 0.000000 0.000000 0.000000 0.754646 0.530303 2.704760 1.682674 -16.064327 -12.580773 -0.554573 0.337234 -2.210701 6.359361 -2.384784 -69.517180 -1.569990 0.717237 0.340406 0.000000 0.000000 0.000000 0.992313 0.430773 3.007251 2.655519 8.230709 18.303891 -0.563660 2.688458 -1.215196 28.248033 7.998811 58.544181 1.084515 7.140498 0.632615 0.000000 0.000000 0.000000 
-0.208803 90.816879 0.247684 0.000000 0.000000 0.000000 -6.026037 3.934468 -0.947107 -21.261870 11.395833 15.476324 30.315808 0.787024 4.460999 -2.184616 -10.553384 -8.357677 -3.217005 0.155393 -0.069275 0.000000 0.000000 0.000000 -6.244026 5.805286 -0.974177 4.445723 -10.793741 2.679368 17.612191 -8.411835 -7.406667 -12.002441 -15.656207 6.142546 -5.454695 0.043731 0.133376 0.000000 0.000000 0.000000 -6.197568 3.993258 -1.222966 3.922368 0.092987 3.133479 1.486173 0.098614 2.977374 0.798102 -0.419667 -0.176571 0.000000 0.000000 0.000000 1.201016 0.405923 2.918016 10.731217 -1.486871 -0.949460 1.861492 -7.510123 -6.143134 0.000000 0.000000 0.000000 0.767503 0.408961 2.665957 1.665052 -16.279163 -12.788404 -0.692810 0.555299 -2.053107 6.673815 -1.512747 -69.786686 -1.546673 0.992980 0.435127 0.000000 0.000000 0.000000 1.079256 0.319807 3.028484 2.705703 7.786397 18.156311 -0.910602 2.469516 -1.281499 28.947971 7.463594 57.978669 1.034443 6.585445 0.645263 0.000000 0.000000 0.000000 
-0.110116 91.004349 0.236988 0.000000 0.000000 0.000000 -5.663325 2.988781 -1.075509 -20.971314 11.595637 15.478732 29.860477 0.543827 4.294838 -2.490536 -9.094298 -8.374532 -3.144577 0.148521 -0.105339 0.000000 0.000000 0.000000 -5.878144 4.815005 -1.109498 3.606117 -10.856989 2.315886 17.404432 -8.375282 -7.167513 -11.455675 -14.409715 6.114625 -5.407475 0.066165 0.165895 0.000000 0.000000 0.000000 -5.776700 3.077098 -1.353811 3.893778 0.043091 3.134573 1.593671 0.029898 2.987931 0.821577 -0.236437 -0.147297 0.000000 0.000000 0.000000 1.272942 0.316459 2.942233 10.326669 -1.207513 -0.826080 0.985147 -6.181457 -5.569895 0.000000 0.000000 0.000000 0.791983 0.322609 2.635677 1.661380 -16.430083 -12.875878 -0.879752 0.717925 -1.918334 7.050646 -1.016400 -70.098689 -1.546239 1.156935 0.459445 0.000000 0.000000 0.000000 1.152225 0.249250 3.058384 2.729978 7.614477 18.089811 -1.124274 2.208307 -1.299899 28.210251 6.545931 57.733963 0.948025 5.761943 0.738406 0.000000 0.000000 0.000000 
-0.022799 91.195251 0.207514 0.000000 0.000000 0.000000 -5.311697 1.951557 -1.241359 -20.628952 11.744704 15.518490 29.424728 0.291029 4.129208 -2.880984 -7.569362 -8.426952 -3.124765 0.141113 -0.133825 0.000000 0.000000 0.000000 -5.524605 3.723440 -1.278371 2.732776 -10.937932 1.952583 17.173011 -8.329999 -6.876581 -10.863116 -13.013557 6.103237 -5.385723 0.072814 0.203203 0.000000 0.000000 0.000000 -5.395512 2.036732 -1.529562 3.883746 0.022014 3.139032 1.721704 -0.021067 2.997139 0.830739 -0.085081 -0.135589 0.000000 0.000000 0.000000 1.343892 0.255589 2.967839 9.895039 -0.941647 -0.671765 0.151254 -4.869123 -4.987402 0.000000 0.000000 0.000000 0.835416 0.264206 2.613660 1.685013 -16.508996 -12.836120 -1.092374 0.762896 -1.812619 7.500974 -0.956462 -70.405085 -1.579988 1.138378 0.417086 0.000000 0.000000 0.000000 1.220984 0.207933 3.080108 2.718291 7.623413 18.056249 -1.111359 1.982656 -1.278375 26.480667 5.701544 57.642767 0.873975 5.156097 0.857956 0.000000 0.000000 0.000000 
0.051015 91.383865 0.158079 0.000000 0.000000 0.000000 -4.971448 0.886177 -1.418281 -20.256903 11.855626 15.575051 28.998883 0.019870 3.966216 -3.273606 -6.067336 -8.503662 -3.125494 0.129893 -0.152688 0.000000 0.000000 0.000000 -5.190913 2.598476 -1.463466 1.891042 -11.027537 1.598030 16.910070 -8.295269 -6.566194 -10.235116 -11.545676 6.103920 -5.415729 0.064946 0.239300 0.000000 0.000000 0.000000 -5.061509 0.938583 -1.719602 3.881872 0.008826 3.146433 1.858156 -0.069789 2.996479 0.798787 -0.027536 -0.121284 0.000000 0.000000 0.000000 1.416005 0.209944 2.978801 9.474873 -0.687576 -0.495417 -0.610522 -3.595300 -4.395621 0.000000 0.000000 0.000000 0.906884 0.219291 2.595241 1.732516 -16.542156 -12.691910 -1.297819 0.713774 -1.738235 7.967334 -1.288454 -70.670533 -1.637365 0.983801 0.332559 0.000000 0.000000 0.000000 1.288120 0.180339 3.081225 2.677344 7.769808 18.008327 -0.870679 1.869818 -1.288133 24.311773 5.464414 57.536257 0.860818 5.133633 0.939635 0.000000 0.000000 0.000000 
0.112476 91.570137 0.110765 0.000000 0.000000 0.000000 -4.650582 -0.152259 -1.588760 -19.868580 11.959710 15.627720 28.543432 -0.264550 3.812989 -3.613602 -4.650018 -8.584480 -3.107234 0.116683 -0.162410 0.000000 0.000000 0.000000 -4.878999 1.498530 -1.647234 1.125427 -11.109712 1.265855 16.619693 -8.290741 -6.266011 -9.627107 -10.092375 6.063865 -5.432658 0.048454 0.271260 0.000000 0.000000 0.000000 -4.775376 -0.149037 -1.905649 3.879437 -0.015041 3.154092 1.985921 -0.125990 2.981493 0.778837 -0.069088 -0.130676 0.000000 0.000000 0.000000 1.491730 0.167470 2.965168 9.101682 -0.447034 -0.306371 -1.273818 -2.388604 -3.800364 0.000000 0.000000 0.000000 1.000944 0.172387 2.571273 1.792811 -16.568331 -12.494829 -1.450646 0.605917 -1.669240 8.356537 -1.932488 -70.870562 -1.709384 0.764028 0.236228 0.000000 0.000000 0.000000 1.365521 0.151067 3.063518 2.620595 8.011838 17.911754 -0.582062 1.787626 -1.316216 22.139182 6.200522 57.350674 0.930199 5.685260 0.954904 0.000000 0.000000 0.000000 
0.162159 91.753250 0.067251 0.000000 0.000000 0.000000 -4.352072 -1.130628 -1.747708 -19.472103 12.087161 15.661923 28.021438 -0.533924 3.671160 -3.891516 -3.354066 -8.647557 -3.025726 0.103247 -0.170612 0.000000 0.000000 0.000000 -4.590065 0.463534 -1.824601 0.459780 -11.172928 0.964155 16.272106 -8.326946 -5.992911 -9.062424 -8.714875 5.963587 -5.396157 0.031210 0.296997 0.000000 0.000000 0.000000 -4.524840 -1.176696 -2.069588 3.872836 -0.051480 3.163858 2.102038 -0.190268 2.953303 0.806572 -0.136039 -0.131423 0.000000 0.000000 0.000000 1.561533 0.120467 2.926675 8.792881 -0.223504 -0.120239 -1.838730 -1.271726 -3.215252 0.000000 0.000000 0.000000 1.116475 0.117267 2.540088 1.853524 -16.605018 -12.315167 -1.566666 0.492850 -1.634100 8.574330 -2.801025 -70.988711 -1.783477 0.629622 0.161175 0.000000 0.000000 0.000000 1.461709 0.113181 3.027399 2.557814 8.324930 17.751795 -0.354602 1.755778 -1.341052 20.259337 7.869364 57.145075 1.029494 6.667045 0.887668 0.000000 0.000000 0.000000 
0.203594 91.929672 0.024723 0.000000 0.000000 0.000000 -4.079496 -2.012190 -1.893343 -19.089933 12.252577 15.668780 27.418140 -0.758284 3.534487 -4.100075 -2.201376 -8.682866 -2.896603 0.093061 -0.183581 0.000000 0.000000 0.000000 -4.323634 -0.460276 -1.992170 -0.089448 -11.202360 0.705115 15.875760 -8.395155 -5.757236 -8.515200 -7.455712 5.823275 -5.347304 0.019434 0.311750 0.000000 0.000000 0.000000 -4.290966 -2.107311 -2.207399 3.860744 -0.091894 3.179971 2.197811 -0.257203 2.916913 0.843455 -0.173908 -0.122266 0.000000 0.000000 0.000000 1.613971 0.067414 2.871464 8.542148 -0.020268 0.048219 -2.331361 -0.271683 -2.643118 0.000000 0.000000 0.000000 1.232699 0.054847 2.502767 1.889878 -16.679230 -12.207178 -1.650997 0.395113 -1.597924 8.565578 -3.865509 -71.009269 -1.835771 0.678855 0.128831 0.000000 0.000000 0.000000 1.564047 0.069139 2.981220 2.498168 8.746874 17.554583 -0.346455 1.680727 -1.323908 18.708013 10.279205 56.982947 1.129796 7.732427 0.749657 0.000000 0.000000 0.000000 
0.244800 92.097366 -0.013405 0.000000 0.000000 0.000000 -3.833331 -2.796426 -2.032187 -18.748502 12.440365 15.651597 26.769482 -0.913425 3.410975 -4.222954 -1.213573 -8.685742 -2.773869 0.087231 -0.197568 0.000000 0.000000 0.000000 -4.073673 -1.273223 -2.151646 -0.545189 -11.198770 0.483430 15.433241 -8.474237 -5.549874 -7.919662 -6.327259 5.697201 -5.358794 0.014745 0.311996 0.000000 0.000000 0.000000 -4.061518 -2.921460 -2.324643 3.840319 -0.122122 3.199623 2.276140 -0.314143 2.875185 0.864041 -0.151824 -0.122585 0.000000 0.000000 0.000000 1.649727 0.018042 2.813129 8.331363 0.152535 0.191776 -2.772374 0.571915 -2.088175 0.000000 0.000000 0.000000 1.334544 -0.002442 2.463477 1.891167 -16.784036 -12.202209 -1.736840 0.330906 -1.545472 8.310395 -5.161819 -70.914029 -1.865360 0.901404 0.142092 0.000000 0.000000 0.000000 1.659655 0.027534 2.931409 2.441349 9.273947 17.334913 -0.551176 1.582782 -1.233992 17.346276 13.108900 56.942427 1.169695 8.733529 0.595578 0.000000 0.000000 0.000000 
0.288622 92.257492 -0.063835 0.000000 0.000000 0.000000 -3.611943 -3.479312 -2.161577 -18.472313 12.622275 15.610546 26.140075 -0.979893 3.303908 -4.249105 -0.406469 -8.637526 -2.664633 0.084457 -0.215696 0.000000 0.000000 0.000000 -3.839115 -1.981155 -2.305104 -0.907195 -11.171843 0.304758 14.914606 -8.540342 -5.369872 -7.254007 -5.326194 5.637477 -5.461129 0.015883 0.304365 0.000000 0.000000 0.000000 -3.829213 -3.611310 -2.428888 3.814060 -0.124571 3.221309 2.342589 -0.351221 2.829705 0.847809 -0.070801 -0.110783 0.000000 0.000000 0.000000 1.667232 -0.019496 2.758056 8.136364 0.291335 0.307518 -3.190003 1.236468 -1.544140 0.000000 0.000000 0.000000 1.411796 -0.043270 2.429468 1.847795 -16.894941 -12.303414 -1.849584 0.284311 -1.501623 7.844496 -6.723744 -70.703577 -1.864791 1.208918 0.192861 0.000000 0.000000 0.000000 1.735206 -0.003551 2.873826 2.387878 9.903530 17.098924 -0.823248 1.513033 -1.096816 16.077231 16.096678 56.996610 1.138913 9.632740 0.457989 0.000000 0.000000 0.000000 
0.341655 92.415169 -0.116661 0.000000 0.000000 0.000000 -3.407873 -4.069161 -2.282319 -18.269916 12.765585 15.545632 25.572648 -0.960814 3.219803 -4.166806 0.215027 -8.546073 -2.581640 0.085264 -0.229636 0.000000 0.000000 0.000000 -3.613483 -2.591914 -2.446032 -1.186333 -11.129240 0.162770 14.313090 -8.582773 -5.213290 -6.549788 -4.445709 5.632567 -5.616702 0.021072 0.300715 0.000000 0.000000 0.000000 -3.591805 -4.175834 -2.528128 3.786227 -0.093858 3.240585 2.399307 -0.364296 2.778740 0.802099 0.056637 -0.098705 0.000000 0.000000 0.000000 1.678700 -0.037939 2.709811 7.941859 0.397872 0.400717 -3.602813 1.703843 -1.000604 0.000000 0.000000 0.000000 1.457798 -0.059661 2.399179 1.764822 -16.990587 -12.477690 -1.963781 0.233683 -1.418792 7.231197 -8.565354 -70.375824 -1.848596 1.436110 0.259318 0.000000 0.000000 0.000000 1.782601 -0.017965 2.808939 2.330932 10.621304 16.846083 -1.078069 1.417122 -0.928222 14.819146 19.124449 57.031048 1.054905 10.451136 0.382378 0.000000 0.000000 0.000000 
